<svg width="1169" height="963" viewBox="0 0 1169 963" fill="none" xmlns="http://www.w3.org/2000/svg">
<path d="M520.4 730C545.1 730 568.5 745.2 573.5 777.8H463.3C467.9 749.1 489.4 730 520.4 730ZM569.9 826.2C546.5 864.9 468.3 852.9 463.3 802.9H601.5C618.7 680.3 435.2 666.9 434 789.7C428.6 874.8 552 908.1 594.9 839.2L569.9 826.2Z" fill="#231F20"/>
<path d="M420.4 631.4H391.7V872.1H420.4V631.4Z" fill="#231F20"/>
<path d="M762.1 770.9V872.1H733.4V772.5C733.4 745.5 717.9 730.3 692.5 730.3C625.3 726.7 648.5 829 644.7 872.1H616V707.2H644.7V730.9C678.1 678.4 767.2 703.2 762.1 770.9Z" fill="#231F20"/>
<path d="M920.3 789.7C921 712.3 802.5 712 803.2 789.7C802.6 867.4 921.1 867.1 920.3 789.7ZM949 631.4V872.1H920.3V843.7C879 908.8 770.4 868.2 774.5 789.6C770.4 711.1 878.9 670.4 920.3 735.5V631.3H949V631.4Z" fill="#231F20"/>
<path d="M1000.9 631.4H972.2V872.1H1000.9V631.4Z" fill="#231F20"/>
<path d="M340.6 789.7C341.3 712.3 222.8 712 223.5 789.7C222.8 867.4 341.3 867.1 340.6 789.7ZM369.3 707.2V872.1H340.6V843.7C299.2 908.8 190.7 868.2 194.8 789.6C190.7 711.1 299.2 670.4 340.6 735.5V707.1H369.3V707.2Z" fill="#231F20"/>
<path d="M152.2 840.4C90.7001 865.4 20.0001 806.9 33.2001 741.7C44.6001 666.2 145.8 640.7 191.6 701.7L216.4 683.5C155.1 600.7 18.2998 634.7 2.89982 736.6C-17.0002 841.8 111.3 918.7 194.5 851.6L178 825.4C170.3 831.9 161.5 837 152.2 840.4Z" fill="#231F20"/>
<path d="M1139.3 707.2C1134.5 746.6 1160.3 852.4 1094.8 850.2C1027.1 851.6 1053.3 748.4 1048.5 707.2H1019.5C1020.6 769.9 1001.9 878.1 1094.9 876.4C1134.4 876.4 1140.6 851.4 1140.6 850.8V884.5C1146.9 948 1060.5 954.4 1051.4 898.2L1025.5 907.3C1032.9 939.2 1061.4 963 1095.9 963C1142.8 963 1168.5 932.1 1168.5 884.6V707.3H1139.3V707.2Z" fill="#231F20"/>
<path d="M685.6 221C676.5 211.6 665.8 204.5 654 199.8C645.7 195.9 636.5 193.6 626.7 193.4L602.2 193C561.8 192.3 528.5 224.6 527.9 265L527.3 299C526.6 339.4 558.9 372.7 599.3 373.3C599.3 373.3 608 373.5 615.3 373.6C620 373.7 624 373.7 624.7 373.7C632.4 373.7 639.8 372.4 646.7 370C660.4 365.9 672.9 358.6 683.5 348.4C710.8 321.9 747.6 309.1 784.1 309.7C793.4 309.9 802.7 310.9 811.8 312.8C815.2 295.6 815.5 278 812.6 260.7C803.5 262.3 794.2 263 784.9 262.9C748.5 262.3 712.1 248.3 685.6 221Z" fill="#231F20"/>
<path d="M704.7 370C691.1 383.2 674.4 393.2 656.4 398.7C646.5 402.1 636.2 403.9 625.6 403.9C624.5 403.9 622.4 403.9 615.2 403.8C608.2 403.7 599.7 403.6 599.1 403.5C542.2 402.7 496.6 355.8 497.4 298.9L497.9 264.9C498.7 208 545.6 162.3 602.5 163.1L627 163.4C640.5 163.6 653.5 166.5 665.8 172.1C681.4 178.4 695.3 187.7 707.1 199.8C726.9 220.1 755.4 232 785.5 232.4C792 232.5 798.5 232 804.8 231C802.3 224.6 799.4 218.4 796 212.4L768 162.4C742.3 116.5 694.1 87.8 641.6 87.1L584.3 86.2997C531.7 85.5997 482.8 113 455.9 158.1L426.6 207.3C399.7 252.5 398.9 308.6 424.6 354.4L452.6 404.4C478.3 450.3 526.5 479 579 479.7L636.3 480.5C688.9 481.2 737.8 453.8 764.7 408.7L794 359.5C797.5 353.5 800.6 347.4 803.3 341.1C797 340 790.5 339.3 784 339.2C753.9 339.1 725 350.2 704.7 370Z" fill="#231F20"/>
<path d="M871 335.9C853.7 322.4 833.5 313.7 812.3 309.7C810.5 319.6 807.7 329.3 803.9 338.7C821 341.6 837.1 348.2 850.5 358.1L850.4 358.5C834.8 408.9 802.8 454.1 760.3 485.9C716.4 518.8 664.1 536.1 609.1 536.1C541.6 536.1 478.2 509.8 430.5 462.1C382.8 414.4 356.5 351 356.5 283.5C356.5 216 382.8 152.6 430.5 104.9C478.2 57.1999 541.6 30.8999 609.1 30.8999C664 30.8999 716.3 48.2 760.1 81C802.5 112.7 834.5 157.9 850.2 208.2C850.3 208.5 850.4 208.7 850.4 208.9C850.3 209 850.3 209 850.2 209.1C836.9 218.9 820.8 225.5 803.8 228.4C807.6 237.8 810.4 247.6 812.2 257.4C832.3 253.6 851.6 245.5 868.3 233.1C884.8 220.6 880.7 204.9 878.9 199.2C843.1 84.2002 735.8 0.799805 609.1 0.799805C453 0.799805 326.5 127.3 326.5 283.4C326.5 439.5 453 566 609.1 566C736 566 843.3 482.4 879 367.2C883.3 357.5 883.5 346.1 871 335.9Z" fill="#231F20"/>
</svg>
